<?xml version="1.0" encoding="iso-8859-1"?>
<!-- Generator: Adobe Illustrator 19.0.0, SVG Export Plug-In . SVG Version: 6.00 Build 0)  -->
<svg version="1.1" id="Layer_1" xmlns="http://www.w3.org/2000/svg" xmlns:xlink="http://www.w3.org/1999/xlink" x="0px" y="0px"
	 viewBox="0 0 491.52 491.52" style="enable-background:new 0 0 491.52 491.52;" xml:space="preserve">
<path style="fill:#F6C358;" d="M406.759,87.803c100.547,100.548,100.547,263.568,0,364.116
	c-114.268,114.268-117.922-45.098-218.47-145.646C87.741,205.724-73.464,203.909,42.643,87.803
	C143.191-12.745,306.211-12.745,406.759,87.803z"/>
<path style="fill:#FCD462;" d="M413.839,75.411c100.548,100.548,100.548,263.569,0,364.116
	c-114.268,114.268-117.922-45.098-218.47-145.646S-66.383,191.518,49.724,75.411C150.271-25.137,313.291-25.137,413.839,75.411z"/>
<circle style="fill:#DC8744;" cx="97.587" cy="121.544" r="39.854"/>
<circle style="fill:#FFFFFF;" cx="209.449" cy="75.049" r="39.854"/>
<circle style="fill:#E56353;" cx="333.158" cy="96.635" r="39.854"/>
<circle style="fill:#27A2DB;" cx="407.04" cy="190.566" r="39.854"/>
<circle style="fill:#64798A;" cx="407.04" cy="310.118" r="39.854"/>
<circle style="fill:#CE412D;" cx="349.747" cy="399.821" r="39.854"/>
<path style="fill:#DC8744;" d="M221.082,134.491L103.008,481.009c-1.389,4.077,0.723,8.516,4.76,10.013
	c4.037,1.497,8.531-0.495,10.135-4.49L254.276,146.8L221.082,134.491z"/>
<rect x="225.536" y="109.778" transform="matrix(-0.9376 -0.3477 0.3477 -0.9376 427.6 328.143)" style="fill:#EBF0F3;" width="35.405" height="31.867"/>
<path style="fill:#64798A;" d="M270.875,95.548c-2.495-2.563-5.256-5.651-8.827-5.448c-1.82,0.103-3.477,1.087-5.276,1.389
	c-3.453,0.579-7.151-1.795-8.061-5.176c-0.449-1.661-0.286-3.451-0.826-5.086c-0.081-0.243-0.23-0.465-0.358-0.697
	c-8.036,7.483-14.373,12.394-16.568,18.315c-1.419,3.828-1.59,7.794-0.807,11.513l32.979,12.228
	c3.021-2.309,5.476-5.428,6.895-9.257c1.055-2.844,1.948-8.969,2.59-16.224C272.046,96.572,271.417,96.107,270.875,95.548z"/>
<path style="fill:#E56353;" d="M248.712,86.312c0.91,3.382,4.608,5.755,8.061,5.176c1.799-0.301,3.456-1.286,5.276-1.389
	c3.57-0.203,6.331,2.885,8.827,5.448c0.542,0.559,1.171,1.025,1.741,1.556c1.791-20.264,1.559-49.556-3.054-42.448
	c-7.698,11.865-15.43,19.721-22.035,25.872c0.127,0.232,0.277,0.454,0.358,0.697C248.425,82.861,248.263,84.651,248.712,86.312z"/>
<g>
</g>
<g>
</g>
<g>
</g>
<g>
</g>
<g>
</g>
<g>
</g>
<g>
</g>
<g>
</g>
<g>
</g>
<g>
</g>
<g>
</g>
<g>
</g>
<g>
</g>
<g>
</g>
<g>
</g>
</svg>
